# xmcd CD database file
#
# Track frame offsets:
#	150
#	21037
#	35962
#	50525
#	69786
#	83440
#	105299
#	128170
#	147070
#	163116
#	177141
#	189401
#	202042
#	266427
#	286125
#	295909
#
# Disc length: 4201 seconds
#
# Revision: 0
# Processed by: cddbd v1.5.2PL0 Copyright (c) Steve Scherf et al.
# Submitted via: CDex 1.51
#
DISCID=da106710
DTITLE=Various Artist - Jazz - The Essential Collection disc 19
DYEAR=1900
DGENRE=Jazz
TTITLE0=Al Caiola - Deep In A Dream
TTITLE1=Ahmad Jamal Trio - The Donkey Serenade
TTITLE2=Gerry Mulligan - Funhouse
TTITLE3=Gil Melle Quintet - Threadneedle Street
TTITLE4=Chris Connor - Try A Little Tenderness
TTITLE5=Red Garland Trio - What Is This Thing Called Love
TTITLE6=Miles Davis - Easy Living
TTITLE7=Ben Webster - Jive At Six
TTITLE8=Firehouse Five Plus Two - At A Georgia Camp Meeting
TTITLE9=Jutta Hipp Quartet - Laura
TTITLE10=George Shearing Quintet - I Hear Music
TTITLE11=Artie Shaw - The Glider
TTITLE12=Gene Ammons All Stars - Jammin' With Gene
TTITLE13=Jay Jay Johnson - Viscosity
TTITLE14=Belmonte and His Afro-American Music - Arthur's Mambo
TTITLE15=Billy Taylor Trio - A Bientot
EXTD=
EXTT0=
EXTT1=
EXTT2=
EXTT3=
EXTT4=
EXTT5=
EXTT6=
EXTT7=
EXTT8=
EXTT9=
EXTT10=
EXTT11=
EXTT12=
EXTT13=
EXTT14=
EXTT15=
PLAYORDER=
